<svg xmlns="http://www.w3.org/2000/svg" width="31" height="31">
    <path d="M20.548 13.78L27.733 7c3.788 6.166 2.88 14.397-2.549 19.52C19.12 32.245 9.7 31.93 4 25.876l1.67-1.577c.2.282.417.557.656.82a8.932 8.932 0 0 0 12.804.508c2.11-1.989 3.075-4.765 2.878-7.476-.006-.08-.016-.152-.024-.23a8.805 8.805 0 0 0-.07-.584c-.009-.064-.025-.124-.037-.188a9.254 9.254 0 0 0-1.329-3.37zm-12.387-.307A9.273 9.273 0 0 0 9.49 16.84l-7.186 6.78c-3.79-6.166-2.88-14.396 2.547-19.518 6.061-5.72 15.468-5.41 21.17.628l-1.67 1.573a8.937 8.937 0 0 0-13.444-1.311c-2.11 1.99-3.074 4.766-2.877 7.478.005.078.016.15.023.229.019.196.038.39.07.583.01.066.026.125.038.19z"
          fill="#F01526" fill-rule="nonzero" />
</svg>